<?xml version="1.0" encoding="UTF-8" standalone="no" ?>
<!DOCTYPE svg PUBLIC "-//W3C//DTD SVG 1.1//EN" "http://www.w3.org/Graphics/SVG/1.1/DTD/svg11.dtd">
<svg xmlns="http://www.w3.org/2000/svg" xmlns:xlink="http://www.w3.org/1999/xlink" version="1.1" width="424.46562500000005" height="161.78" xml:space="preserve">
<desc>Created with Fabric.js 1.6.0-rc.1</desc>
<defs></defs>
  <g transform="translate(301.53 76.93)">
   <text font-family="FFF Tusj" font-size="40" font-weight="normal" style="stroke: none; stroke-width: 1; stroke-dasharray: none; stroke-linecap: butt; stroke-linejoin: miter; stroke-miterlimit: 10; fill: #2389b8; fill-rule: nonzero; opacity: 1;" ><tspan x="-26.25" y="8.98" style="stroke: none; stroke-width: 0; stroke-dasharray: none; stroke-linecap: butt; stroke-linejoin: miter; stroke-miterlimit: 4; fill: #2389b8; fill-rule: ; opacity: 1;">T</tspan><tspan x="-0.41" y="8.98" style="stroke: none; stroke-width: 0; stroke-dasharray: none; stroke-linecap: butt; stroke-linejoin: miter; stroke-miterlimit: 4; fill: #2389b8; fill-rule: ; opacity: 1;">V</tspan></text>
 </g>
  <g transform="translate(308.76 122.71) scale(0.6 0.6)">
   <text font-family="ADAMCG PRO" font-size="40" font-weight="normal" style="stroke: none; stroke-width: 1; stroke-dasharray: none; stroke-linecap: butt; stroke-linejoin: miter; stroke-miterlimit: 10; fill: #04c49e; fill-rule: nonzero; opacity: 1;" ><tspan x="-176.68" y="8.98" style="stroke: none; stroke-width: 0; stroke-dasharray: none; stroke-linecap: butt; stroke-linejoin: miter; stroke-miterlimit: 4; fill: #04c49e; fill-rule: ; opacity: 1;">m</tspan><tspan x="-142.58" y="8.98" style="stroke: none; stroke-width: 0; stroke-dasharray: none; stroke-linecap: butt; stroke-linejoin: miter; stroke-miterlimit: 4; fill: #04c49e; fill-rule: ; opacity: 1;">O</tspan><tspan x="-108.63" y="8.98" style="stroke: none; stroke-width: 0; stroke-dasharray: none; stroke-linecap: butt; stroke-linejoin: miter; stroke-miterlimit: 4; fill: #04c49e; fill-rule: ; opacity: 1;">V</tspan><tspan x="-80.33" y="8.98" style="stroke: none; stroke-width: 0; stroke-dasharray: none; stroke-linecap: butt; stroke-linejoin: miter; stroke-miterlimit: 4; fill: #04c49e; fill-rule: ; opacity: 1;">I</tspan><tspan x="-69.55" y="8.98" style="stroke: none; stroke-width: 0; stroke-dasharray: none; stroke-linecap: butt; stroke-linejoin: miter; stroke-miterlimit: 4; fill: #04c49e; fill-rule: ; opacity: 1;">E</tspan><tspan x="-46.29" y="8.98" style="stroke: none; stroke-width: 0; stroke-dasharray: none; stroke-linecap: butt; stroke-linejoin: miter; stroke-miterlimit: 4; fill: #04c49e; fill-rule: ; opacity: 1;"> </tspan><tspan x="-34.3" y="8.98" style="stroke: none; stroke-width: 0; stroke-dasharray: none; stroke-linecap: butt; stroke-linejoin: miter; stroke-miterlimit: 4; fill: #04c49e; fill-rule: ; opacity: 1;">P</tspan><tspan x="-11.88" y="8.98" style="stroke: none; stroke-width: 0; stroke-dasharray: none; stroke-linecap: butt; stroke-linejoin: miter; stroke-miterlimit: 4; fill: #04c49e; fill-rule: ; opacity: 1;">L</tspan><tspan x="8.55" y="8.98" style="stroke: none; stroke-width: 0; stroke-dasharray: none; stroke-linecap: butt; stroke-linejoin: miter; stroke-miterlimit: 4; fill: #04c49e; fill-rule: ; opacity: 1;">A</tspan><tspan x="36.35" y="8.98" style="stroke: none; stroke-width: 0; stroke-dasharray: none; stroke-linecap: butt; stroke-linejoin: miter; stroke-miterlimit: 4; fill: #04c49e; fill-rule: ; opacity: 1;">T</tspan><tspan x="59.71" y="8.98" style="stroke: none; stroke-width: 0; stroke-dasharray: none; stroke-linecap: butt; stroke-linejoin: miter; stroke-miterlimit: 4; fill: #04c49e; fill-rule: ; opacity: 1;">F</tspan><tspan x="83.01" y="8.98" style="stroke: none; stroke-width: 0; stroke-dasharray: none; stroke-linecap: butt; stroke-linejoin: miter; stroke-miterlimit: 4; fill: #04c49e; fill-rule: ; opacity: 1;">O</tspan><tspan x="116.95" y="8.98" style="stroke: none; stroke-width: 0; stroke-dasharray: none; stroke-linecap: butt; stroke-linejoin: miter; stroke-miterlimit: 4; fill: #04c49e; fill-rule: ; opacity: 1;">R</tspan><tspan x="142.58" y="8.98" style="stroke: none; stroke-width: 0; stroke-dasharray: none; stroke-linecap: butt; stroke-linejoin: miter; stroke-miterlimit: 4; fill: #04c49e; fill-rule: ; opacity: 1;">M</tspan></text>
 </g>
  <g transform="translate(238.34 76.93)">
   <text font-family="Top Secret" font-size="40" font-weight="normal" style="stroke: none; stroke-width: 1; stroke-dasharray: none; stroke-linecap: butt; stroke-linejoin: miter; stroke-miterlimit: 10; fill: #17baeb; fill-rule: nonzero; opacity: 1;" ><tspan x="-32.06" y="8.98" style="stroke: none; stroke-width: 0; stroke-dasharray: none; stroke-linecap: butt; stroke-linejoin: miter; stroke-miterlimit: 4; fill: #17baeb; fill-rule: ; opacity: 1;">j</tspan><tspan x="-9.66" y="8.98" style="stroke: none; stroke-width: 0; stroke-dasharray: none; stroke-linecap: butt; stroke-linejoin: miter; stroke-miterlimit: 4; fill: #17baeb; fill-rule: ; opacity: 1;">k</tspan><tspan x="18.94" y="8.98" style="stroke: none; stroke-width: 0; stroke-dasharray: none; stroke-linecap: butt; stroke-linejoin: miter; stroke-miterlimit: 4; fill: #17baeb; fill-rule: ; opacity: 1;">-</tspan></text>
 </g>
<g style="stroke: none; stroke-width: 1; stroke-dasharray: none; stroke-linecap: butt; stroke-linejoin: miter; stroke-miterlimit: 10; fill: none; fill-rule: nonzero; opacity: 1;" transform="translate(10 10) scale(0.34 0.34)" >
  <path d="M 201.626 205.233 c 0 -11.654 9.445 -21.1 21.098 -21.1 c 4.368 0 8.423 1.324 11.789 3.598 l 42.747 24.679 l 1.084 0.672 l 42.82 24.72 c 10.062 5.786 13.533 18.629 7.751 28.689 c -1.978 3.435 -4.776 6.1 -8.005 7.895 l -43.668 25.213 l 0.019 0.037 l -43.984 25.393 c -10.062 5.827 -22.938 2.394 -28.769 -7.668 c -1.925 -3.327 -2.839 -6.964 -2.836 -10.551 h -0.044 v -50.788 v -50.789 H 201.626 z M 458.665 106.665 H 53.332 c -23.465 0 -42.665 19.199 -42.665 42.668 V 362.67 c 0 23.466 19.199 42.666 42.665 42.666 h 405.333 c 23.468 0 42.668 -19.198 42.668 -42.666 V 149.333 C 501.333 125.864 482.133 106.665 458.665 106.665 z" style="stroke: none; stroke-width: 1; stroke-dasharray: none; stroke-linecap: butt; stroke-linejoin: miter; stroke-miterlimit: 10; fill: #30c993; fill-rule: nonzero; opacity: 1;" transform=" matrix(1 0 0 1 0 0) " stroke-linecap="round" />
  <path d="M 222.724 184.132 c -11.654 0 -21.098 9.446 -21.098 21.1 v 50.789 v 50.788 h 0.044 c -0.002 3.587 0.912 7.224 2.836 10.551 c 5.831 10.061 18.708 13.493 28.769 7.668 l 43.984 -25.393 l -0.019 -0.037 l 43.668 -25.213 c 3.229 -1.795 6.027 -4.46 8.005 -7.895 c 5.782 -10.061 2.311 -22.903 -7.751 -28.689 l -42.82 -24.72 l -1.084 -0.672 l -42.747 -24.679 C 231.148 185.457 227.093 184.132 222.724 184.132 z" style="stroke: none; stroke-width: 1; stroke-dasharray: none; stroke-linecap: butt; stroke-linejoin: miter; stroke-miterlimit: 10; fill: #51fcee; fill-rule: nonzero; opacity: 1;" transform=" matrix(1 0 0 1 0 0) " stroke-linecap="round" />
  <path d="M 458.665 95.997 H 53.332 C 23.925 95.997 0 119.923 0 149.333 V 362.67 c 0 29.408 23.925 53.333 53.332 53.333 h 405.333 c 29.408 0 53.335 -23.925 53.335 -53.333 V 149.333 C 512 119.923 488.074 95.997 458.665 95.997 z M 490.665 362.67 c 0 17.644 -14.355 31.998 -32 31.998 H 53.332 c -17.643 -0.001 -31.997 -14.355 -31.997 -31.998 V 149.333 c 0 -17.645 14.354 -32 31.997 -32 h 405.333 c 17.645 0 32 14.355 32 32 L 490.665 362.67 L 490.665 362.67 z" style="stroke: none; stroke-width: 1; stroke-dasharray: none; stroke-linecap: butt; stroke-linejoin: miter; stroke-miterlimit: 10; fill: #212170; fill-rule: nonzero; opacity: 1;" transform=" matrix(1 0 0 1 0 0) " stroke-linecap="round" />
  <path d="M 326.497 228.569 l -42.576 -24.583 c -0.442 -0.286 -0.89 -0.56 -1.327 -0.812 l -42.452 -24.512 c -5.176 -3.401 -11.188 -5.197 -17.416 -5.197 c -17.517 0 -31.768 14.251 -31.768 31.768 v 101.58 c 0 0.409 0.022 0.811 0.067 1.207 c 0.195 5.148 1.655 10.202 4.252 14.688 c 5.655 9.762 16.18 15.826 27.469 15.826 c 5.559 0 11.048 -1.477 15.864 -4.267 l 43.984 -25.393 c 0.277 -0.161 0.546 -0.332 0.804 -0.513 l 42.777 -24.696 c 4.982 -2.786 9.126 -6.883 11.988 -11.858 C 346.865 256.662 341.623 237.26 326.497 228.569 z M 319.667 261.169 c -0.942 1.64 -2.304 2.984 -3.936 3.889 c -0.052 0.029 -0.105 0.059 -0.156 0.089 l -43.668 25.213 c -0.279 0.16 -0.546 0.332 -0.804 0.512 l -43.173 24.925 c -1.605 0.929 -3.351 1.401 -5.183 1.401 c -3.704 0 -7.155 -1.986 -9.007 -5.183 c -0.931 -1.61 -1.403 -3.356 -1.402 -5.19 c 0.001 -0.332 -0.016 -0.662 -0.046 -0.991 V 205.232 c 0 -5.753 4.681 -10.433 10.433 -10.433 c 2.092 0 4.103 0.611 5.813 1.769 c 0.209 0.141 0.422 0.274 0.642 0.401 l 42.776 24.698 c 0.183 0.105 0.361 0.219 0.533 0.334 c 0.171 0.112 0.344 0.219 0.521 0.32 l 42.839 24.736 C 320.794 249.897 322.505 256.233 319.667 261.169 z" style="stroke: none; stroke-width: 1; stroke-dasharray: none; stroke-linecap: butt; stroke-linejoin: miter; stroke-miterlimit: 10; fill: #212170; fill-rule: nonzero; opacity: 1;" transform=" matrix(1 0 0 1 0 0) " stroke-linecap="round" />
  <path d="M 458.667 138.665 h -52.996 c -5.892 0 -10.667 4.776 -10.667 10.667 S 399.779 160 405.671 160 h 52.996 c 5.893 0 10.668 -4.776 10.668 -10.667 S 464.56 138.665 458.667 138.665 z" style="stroke: none; stroke-width: 1; stroke-dasharray: none; stroke-linecap: butt; stroke-linejoin: miter; stroke-miterlimit: 10; fill: #212170; fill-rule: nonzero; opacity: 1;" transform=" matrix(1 0 0 1 0 0) " stroke-linecap="round" />
  <path d="M 375.025 138.669 h -0.252 c -5.892 0 -10.667 4.776 -10.667 10.667 s 4.776 10.667 10.667 10.667 h 0.252 c 5.892 0 10.667 -4.776 10.667 -10.667 S 380.918 138.669 375.025 138.669 z" style="stroke: none; stroke-width: 1; stroke-dasharray: none; stroke-linecap: butt; stroke-linejoin: miter; stroke-miterlimit: 10; fill: #212170; fill-rule: nonzero; opacity: 1;" transform=" matrix(1 0 0 1 0 0) " stroke-linecap="round" />
  <path d="M 137.23 352.002 h -0.253 c -5.892 0 -10.667 4.776 -10.667 10.668 s 4.776 10.667 10.667 10.667 h 0.253 c 5.892 0 10.667 -4.776 10.667 -10.667 C 147.897 356.778 143.12 352.002 137.23 352.002 z" style="stroke: none; stroke-width: 1; stroke-dasharray: none; stroke-linecap: butt; stroke-linejoin: miter; stroke-miterlimit: 10; fill: #212170; fill-rule: nonzero; opacity: 1;" transform=" matrix(1 0 0 1 0 0) " stroke-linecap="round" />
  <path d="M 106.331 351.998 H 53.332 c -5.893 0 -10.667 4.776 -10.667 10.667 s 4.775 10.667 10.667 10.667 h 52.999 c 5.891 0 10.667 -4.776 10.667 -10.667 C 116.999 356.774 112.222 351.998 106.331 351.998 z" style="stroke: none; stroke-width: 1; stroke-dasharray: none; stroke-linecap: butt; stroke-linejoin: miter; stroke-miterlimit: 10; fill: #212170; fill-rule: nonzero; opacity: 1;" transform=" matrix(1 0 0 1 0 0) " stroke-linecap="round" />
</g>
</svg>